<?xml version="1.0" encoding="UTF-8" standalone="no"?>
<!-- Created with Inkscape (http://www.inkscape.org/) -->

<svg
   width="206.10616mm"
   height="35.304863mm"
   viewBox="0 0 206.10616 35.304863"
   version="1.1"
   id="svg1"
   xml:space="preserve"
   xmlns="http://www.w3.org/2000/svg"
   xmlns:svg="http://www.w3.org/2000/svg"><defs
     id="defs1" /><g
     id="layer1"
     transform="translate(205.79192,-751.99399)"><path
       id="path4"
       style="fill:#000000;stroke-width:1.22484"
       d="m -199.9586,787.05933 c -1.46921,-0.48139 -3.39116,-1.58398 -4.11647,-2.36156 -0.87893,-0.94226 -1.71685,-2.88795 -1.71685,-3.9866 0,-0.80553 0.0448,-0.8206 2.44353,-0.8206 2.44099,0 2.44485,10e-4 3.71339,1.3349 l 1.26987,1.33491 2.10158,-0.13382 c 2.41923,-0.15404 3.43456,-0.82058 3.43456,-2.25468 0,-1.23035 -0.79567,-1.69347 -4.60753,-2.68169 -4.85566,-1.25885 -6.48194,-2.29648 -7.52976,-4.80426 -1.39447,-3.33746 0.2474,-7.07714 3.88946,-8.85903 1.48892,-0.72846 2.21844,-0.87342 4.39541,-0.87342 2.3264,0 2.84364,0.11917 4.75703,1.09588 2.33829,1.19362 3.84329,2.93882 4.0192,4.66068 l 0.0993,0.97222 -2.49305,0.0943 c -2.22711,0.0843 -2.53061,0.0241 -2.84525,-0.56377 -0.58487,-1.09284 -2.19524,-1.72739 -3.95474,-1.55832 -1.94563,0.18695 -2.85971,0.95236 -2.85971,2.39461 0,1.38465 0.70026,1.8277 4.0292,2.54928 5.04293,1.09308 7.18346,2.26086 8.27419,4.51402 1.65706,3.42303 -0.11746,7.59405 -3.9444,9.27146 -1.83973,0.80638 -6.74875,1.20307 -8.35899,0.67547 z m 38.25534,-0.0691 c -5.92285,-1.16102 -9.41468,-6.14845 -9.02445,-12.88967 0.58225,-10.05789 11.90088,-14.85531 19.19201,-8.13459 2.26894,2.09145 3.21169,4.19521 3.37177,7.52414 l 0.13635,2.83563 h -8.60846 c -5.12514,0 -8.68594,0.12537 -8.79993,0.30981 -0.28787,0.46578 0.71887,2.64437 1.70976,3.7 1.17593,1.25277 2.62272,1.82351 4.62248,1.82351 1.93277,0 3.40266,-0.61385 4.69176,-1.95938 0.85213,-0.88945 1.08506,-0.95728 3.28704,-0.95728 1.42443,0 2.36991,0.13444 2.36991,0.33699 0,0.67466 -1.35301,2.96467 -2.50504,4.23981 -1.45188,1.60707 -3.5578,2.70675 -6.07443,3.17197 -2.14212,0.39599 -2.34409,0.39596 -4.36877,-9.4e-4 z m 8.08715,-15.51194 c 0,-1.58177 -3.37047,-3.89891 -5.67128,-3.89891 -2.23316,0 -5.67129,2.35538 -5.67129,3.88526 0,0.62346 0.21605,0.64815 5.67129,0.64815 5.41457,0 5.67128,-0.0287 5.67128,-0.6345 z m 67.198239,15.5425 c -3.528886,-0.73368 -6.930964,-3.64905 -8.244377,-7.06489 -1.027571,-2.67248 -1.01798,-7.2622 0.0207,-9.93319 1.416618,-3.6427 4.93404,-6.45418 8.736323,-6.98297 3.636967,-0.5058 6.940739,0.51697 9.606135,2.97384 2.117476,1.95182 3.143087,4.30329 3.316305,7.60348 l 0.142167,2.70868 h -8.670992 -8.670979 l 0.193158,1.19036 c 0.234472,1.44483 1.617517,3.22766 3.135442,4.04172 2.310069,1.23891 5.84579,0.56659 7.750165,-1.47369 0.707654,-0.75816 1.021373,-0.84173 3.159721,-0.84173 1.684822,0 2.373172,0.11759 2.371016,0.4051 -0.0061,0.84742 -1.967087,3.77934 -3.277612,4.9011 -2.372266,2.03057 -6.527231,3.10423 -9.567221,2.47219 z m 7.986768,-15.59426 c 0,-1.67883 -3.39762,-3.85602 -5.995355,-3.84184 -2.158531,0.0122 -5.347204,2.34034 -5.347204,3.90482 0,0.59125 0.291464,0.62328 5.671273,0.62328 5.560266,0 5.671286,-0.0135 5.671286,-0.68626 z m -99.816677,15.29084 c -1.81152,-0.55103 -2.93891,-1.38878 -3.63561,-2.70157 -0.67396,-1.26989 -0.73968,-1.90651 -0.89438,-8.66228 l -0.16698,-7.29164 -1.62036,-0.0271 -1.62037,-0.0271 -0.0952,-2.32251 -0.0952,-2.32252 h 1.78443 1.78444 l 0.0932,-2.99768 0.0932,-2.99767 h 2.5926 2.59259 l 0.0932,2.99767 0.0932,2.99768 h 2.09431 2.09431 v 2.26851 2.26853 h -1.59386 c -2.778,0 -2.61909,-0.41128 -2.61909,6.77826 0,4.60607 0.11281,6.53413 0.40509,6.92066 0.28049,0.371 1.00318,0.5645 2.34954,0.62907 l 1.94444,0.0932 0.0952,2.34953 0.0952,2.34954 -2.52578,-0.0278 c -1.38917,-0.0153 -2.89128,-0.13904 -3.33804,-0.27494 z m 33.13578,-17.11614 0.0839,-17.41894 2.6736,-0.0941 2.67361,-0.0942 v 17.51307 17.51306 h -2.75743 -2.75745 z m 15.68964,16.94623 c -1.30629,-0.46576 -2.60561,-1.51089 -3.23976,-2.60599 -0.24125,-0.4166 -0.43323,-3.36896 -0.53738,-8.26387 l -0.16203,-7.61572 -1.86342,-0.0973 -1.86343,-0.0971 v -2.23618 -2.23616 l 1.86343,-0.0973 1.86342,-0.0971 0.0933,-3.0106 0.0933,-3.01058 2.61746,0.0939 2.61748,0.0939 0.0439,2.91666 0.0438,2.91666 2.18749,0.0958 2.1875,0.0958 v 2.23889 2.23891 l -2.1875,0.0958 -2.18749,0.0958 -0.0882,6.28437 c -0.10803,7.70154 -0.0675,7.81282 2.85026,7.81282 h 1.93697 v 2.43055 2.43055 l -2.51156,-0.0142 c -1.38136,-0.007 -3.07227,-0.21414 -3.75757,-0.45848 z m 9.66252,0.079 c -0.0887,-0.23107 -0.12284,-5.52346 -0.0759,-11.76085 l 0.0852,-11.34073 2.31095,-0.0944 2.31096,-0.0944 0.21617,1.15231 0.21617,1.1523 1.03768,-0.77655 c 2.16828,-1.62264 3.18626,-1.96032 5.89878,-1.95674 3.11711,0.004 5.45834,0.89257 7.01049,2.66037 1.888657,2.15106 2.024602,2.81237 2.144894,10.43401 0.06051,3.83217 -0.0061,7.84258 -0.148169,8.91202 l -0.258148,1.94444 -2.511117,0.0947 -2.5111,0.0947 v -7.3487 c 0,-8.03144 -0.19767,-9.3016 -1.66651,-10.70884 -1.18653,-1.13678 -4.11088,-1.45456 -5.83902,-0.63452 -2.20849,1.048 -2.35936,1.67525 -2.54074,10.56296 l -0.16203,7.9398 -2.67873,0.0942 c -1.96526,0.0691 -2.72165,-0.0176 -2.83992,-0.32591 z m 50.15569,-11.34123 0.085,-11.76035 2.511567,-0.0947 2.511581,-0.0947 v 1.47197 c 0,1.67783 0.228238,1.79866 1.280918,0.67814 1.092781,-1.16321 3.397081,-2.13804 5.238965,-2.21633 l 1.612789,-0.0686 0.06565,2.51238 0.06565,2.51236 -1.134255,0.18853 c -2.893755,0.48096 -5.039633,1.62282 -5.909983,3.14479 -0.281457,0.49218 -0.460101,2.99537 -0.571488,8.00765 l -0.162035,7.29165 -2.839692,0.0937 -2.839703,0.0937 z m 13.972619,11.11069 c -1.350317,-0.82338 -1.94945,-2.56651 -1.452371,-4.22561 0.465955,-1.55521 1.311502,-2.29541 2.852135,-2.49677 1.671496,-0.21848 2.890547,0.30849 3.669621,1.58628 2.100363,3.44491 -1.63551,7.22996 -5.069385,5.1361 z m 16.506012,0.17304 c -3.249156,-1.0604 -6.055801,-3.50263 -7.594291,-6.60826 -0.647697,-1.30743 -0.757554,-2.02047 -0.759734,-4.93121 -0.0024,-3.06695 0.08941,-3.60178 0.928898,-5.41927 1.101759,-2.38525 3.681367,-4.9838 5.954861,-5.99858 2.362186,-1.05437 6.235315,-1.16658 8.960777,-0.25961 2.536872,0.84422 5.281552,3.14691 6.328329,5.30925 1.146858,2.36909 1.056954,2.47933 -2.021924,2.47933 -2.637102,0 -2.709294,-0.0211 -3.437207,-1.00567 -1.078941,-1.45935 -3.27903,-2.34122 -5.401734,-2.16519 -2.350783,0.19494 -4.030534,1.35589 -5.117326,3.53681 -1.452641,2.91506 -0.978577,5.99862 1.26813,8.24872 2.557512,2.56137 6.180968,2.60393 9.018859,0.10595 1.403794,-1.23567 1.499981,-1.2669 3.901116,-1.2669 2.89966,0 3.000256,0.18495 1.511887,2.77984 -1.972747,3.4394 -5.33269,5.38295 -9.582422,5.54291 -1.585156,0.0597 -3.123254,-0.0756 -3.958219,-0.3481 z m 24.953641,-0.0189 c -3.438775,-1.0747 -6.643824,-4.0084 -7.912163,-7.24227 -0.553605,-1.41156 -0.727962,-2.53627 -0.738569,-4.76441 -0.01225,-2.54213 0.105827,-3.17808 0.918217,-4.9525 2.256163,-4.92774 7.935092,-7.92175 13.0293903,-6.86928 3.845435,0.79446 6.9231255,3.09956 8.42829978,6.31254 1.23934634,2.64551 1.16967721,2.75463 -1.75853328,2.75463 h -2.5239629 l -1.2190385,-1.45838 c -1.5403395,-1.84274 -2.8412833,-2.51596 -4.9199174,-2.54601 -5.631589,-0.0815 -8.691519,7.16855 -4.829695,11.44312 1.426674,1.57917 2.911601,2.28347 4.814409,2.28347 2.0260025,0 3.3513084,-0.61257 4.8008748,-2.21898 l 1.214433,-1.34583 h 2.5934238 c 1.86249809,0 2.59142737,0.11415 2.58631977,0.40509 -0.0312335,1.77486 -3.33908447,5.94391 -5.65619567,7.12869 -2.905257,1.48552 -6.2144797,1.88669 -8.8272927,1.07012 z" /></g></svg>
